{"asset":{"generator":"3D Builder","version":"2.0"},"scene":0,"scenes":[{"nodes":[0]}],"nodes":[{"children":[1,2,3,4,5,6,7,8,9,10,11]},{"mesh":0,"matrix":[39.370079040527344,0,0,0,0,-4.6932791519793682E-6,-39.370075225830078,0,0,39.370075225830078,-4.6932791519793682E-6,0,0.061597958207130432,7.1256319642998278E-5,-0.051879201084375381,1]},{"mesh":1,"matrix":[39.370079040527344,0,0,0,0,-4.6932791519793682E-6,-39.370075225830078,0,0,39.370075225830078,-4.6932791519793682E-6,0,0.061597958207130432,7.1256319642998278E-5,-0.051879201084375381,1]},{"mesh":2,"matrix":[39.370079040527344,0,0,0,0,-4.6932791519793682E-6,-39.370075225830078,0,0,39.370075225830078,-4.6932791519793682E-6,0,0.061597958207130432,7.1256319642998278E-5,-0.051879201084375381,1]},{"mesh":3,"matrix":[39.370079040527344,0,0,0,0,-4.6932791519793682E-6,-39.370075225830078,0,0,39.370075225830078,-4.6932791519793682E-6,0,0.061597958207130432,7.1256319642998278E-5,-0.051879201084375381,1]},{"mesh":4,"matrix":[39.370079040527344,0,0,0,0,-4.6932791519793682E-6,-39.370075225830078,0,0,39.370075225830078,-4.6932791519793682E-6,0,0.061597958207130432,7.1256319642998278E-5,-0.051879201084375381,1]},{"mesh":5,"matrix":[39.370079040527344,0,0,0,0,-4.6932791519793682E-6,-39.370075225830078,0,0,39.370075225830078,-4.6932791519793682E-6,0,0.061597958207130432,7.1256319642998278E-5,-0.051879201084375381,1]},{"mesh":6,"matrix":[39.370079040527344,0,0,0,0,-4.6932791519793682E-6,-39.370075225830078,0,0,39.370075225830078,-4.6932791519793682E-6,0,0.061597958207130432,7.1256319642998278E-5,-0.051879201084375381,1]},{"mesh":7,"matrix":[39.370079040527344,0,0,0,0,-4.6932791519793682E-6,-39.370075225830078,0,0,39.370075225830078,-4.6932791519793682E-6,0,0.061597958207130432,7.1256319642998278E-5,-0.051879201084375381,1]},{"mesh":8,"matrix":[39.370079040527344,0,0,0,0,-4.6932791519793682E-6,-39.370075225830078,0,0,39.370075225830078,-4.6932791519793682E-6,0,0.061597958207130432,7.1256319642998278E-5,-0.051879201084375381,1]},{"mesh":9,"matrix":[39.370079040527344,0,0,0,0,-4.6932791519793682E-6,-39.370075225830078,0,0,39.370075225830078,-4.6932791519793682E-6,0,0.061597958207130432,7.1256319642998278E-5,-0.051879201084375381,1]},{"mesh":10,"matrix":[39.370079040527344,0,0,0,0,-4.6932791519793682E-6,-39.370075225830078,0,0,39.370075225830078,-4.6932791519793682E-6,0,0.061597958207130432,7.1256319642998278E-5,-0.051879201084375381,1]}],"meshes":[{"primitives":[{"attributes":{"POSITION":0},"mode":4,"indices":5,"material":0},{"attributes":{"POSITION":1,"COLOR_0":4},"mode":4,"indices":6},{"attributes":{"POSITION":2,"TEXCOORD_0":3},"mode":4,"indices":7,"material":1}]},{"primitives":[{"attributes":{"POSITION":8},"mode":4,"indices":9,"material":0}]},{"primitives":[{"attributes":{"POSITION":10},"mode":4,"indices":11,"material":0}]},{"primitives":[{"attributes":{"POSITION":12},"mode":4,"indices":17,"material":0},{"attributes":{"POSITION":13,"COLOR_0":16},"mode":4,"indices":18},{"attributes":{"POSITION":14,"TEXCOORD_0":15},"mode":4,"indices":19,"material":2}]},{"primitives":[{"attributes":{"POSITION":20},"mode":4,"indices":21,"material":0}]},{"primitives":[{"attributes":{"POSITION":22},"mode":4,"indices":23,"material":0}]},{"primitives":[{"attributes":{"POSITION":24},"mode":4,"indices":25,"material":0}]},{"primitives":[{"attributes":{"POSITION":26},"mode":4,"indices":27,"material":0}]},{"primitives":[{"attributes":{"POSITION":28},"mode":4,"indices":29,"material":0}]},{"primitives":[{"attributes":{"POSITION":30},"mode":4,"indices":31,"material":0}]},{"primitives":[{"attributes":{"POSITION":32},"mode":4,"indices":33,"material":0}]}],"materials":[{"name":"Metallic","pbrMetallicRoughness":{"baseColorFactor":[0.048171821981668472,0.063010029494762421,0.5972018837928772,1],"metallicFactor":1,"roughnessFactor":0},"alphaMode":"OPAQUE"},{"pbrMetallicRoughness":{"baseColorFactor":[1,1,1,1],"metallicFactor":0,"roughnessFactor":1,"baseColorTexture":{"index":0,"texCoord":0}},"alphaMode":"OPAQUE"},{"pbrMetallicRoughness":{"baseColorFactor":[1,1,1,1],"metallicFactor":0,"roughnessFactor":1,"baseColorTexture":{"index":1,"texCoord":0}},"alphaMode":"OPAQUE"}],"textures":[{"source":0,"sampler":0},{"source":1,"sampler":0}],"images":[{"uri":"Screenshot (565).png"},{"uri":"WhatsApp Image 2023-03-23 at 17.30.jpeg"}],"samplers":[{"magFilter":9729,"wrapS":10497,"wrapT":10497}],"accessors":[{"bufferView":0,"byteOffset":0,"count":3458,"componentType":5126,"type":"VEC3","min":[-0.017116624861955643,-0.0088258730247616768,-1.8100677152688149E-6],"max":[-0.010472794994711876,0.0061787324957549572,0.01466687023639679]},{"bufferView":0,"byteOffset":41496,"count":529,"componentType":5126,"type":"VEC3","min":[-0.016320360824465752,-0.0088009899482131,0.00025946414098143578],"max":[-0.011144642718136311,-0.0080918166786432266,0.01365909818559885]},{"bufferView":0,"byteOffset":47844,"count":46,"componentType":5126,"type":"VEC3","min":[-0.017079301178455353,-0.0069969533942639828,9.7722971986513585E-5],"max":[-0.016905117779970169,0.0060916407965123653,0.014617105014622211]},{"bufferView":1,"byteOffset":0,"count":46,"componentType":5126,"type":"VEC2"},{"bufferView":2,"byteOffset":0,"count":529,"componentType":5121,"type":"VEC4","normalized":true},{"bufferView":3,"byteOffset":0,"count":21312,"componentType":5125,"type":"SCALAR"},{"bufferView":3,"byteOffset":85248,"count":2382,"componentType":5125,"type":"SCALAR"},{"bufferView":3,"byteOffset":94776,"count":96,"componentType":5125,"type":"SCALAR"},{"bufferView":4,"byteOffset":0,"count":847,"componentType":5126,"type":"VEC3","min":[0.011760396882891655,-0.0085023911669850349,-1.8100677152688149E-6],"max":[0.013987447135150433,-0.0043842112645506859,0.0013294444652274251]},{"bufferView":5,"byteOffset":0,"count":5088,"componentType":5125,"type":"SCALAR"},{"bufferView":6,"byteOffset":0,"count":1641,"componentType":5126,"type":"VEC3","min":[-0.0083950432017445564,-0.0067978878505527973,0.00070736283669248223],"max":[0.0022798753343522549,-0.0036252718418836594,0.0010308452183380723]},{"bufferView":7,"byteOffset":0,"count":11316,"componentType":5125,"type":"SCALAR"},{"bufferView":8,"byteOffset":0,"count":380,"componentType":5126,"type":"VEC3","min":[-0.0083826016634702682,-0.00015405732847284526,0.0031832472886890173],"max":[0.0083762733265757561,0.0026204257737845182,0.014057230204343796]},{"bufferView":8,"byteOffset":4560,"count":208,"componentType":5126,"type":"VEC3","min":[-0.0038040813524276018,-0.000912996125407517,0.00030923067242838442],"max":[0.0037977544125169516,0.0050963116809725761,0.00934185367077589]},{"bufferView":8,"byteOffset":7056,"count":8,"componentType":5126,"type":"VEC3","min":[-0.0071882051415741444,0.00010721774742705747,0.0042159026488661766],"max":[0.0071818772703409195,0.00010721774742705747,0.013024576008319855]},{"bufferView":9,"byteOffset":0,"count":8,"componentType":5126,"type":"VEC2"},{"bufferView":10,"byteOffset":0,"count":208,"componentType":5121,"type":"VEC4","normalized":true},{"bufferView":11,"byteOffset":0,"count":2217,"componentType":5125,"type":"SCALAR"},{"bufferView":11,"byteOffset":8868,"count":1197,"componentType":5125,"type":"SCALAR"},{"bufferView":11,"byteOffset":13656,"count":18,"componentType":5125,"type":"SCALAR"},{"bufferView":12,"byteOffset":0,"count":736,"componentType":5126,"type":"VEC3","min":[-0.0090917740017175674,-0.0074199684895575047,1.0631561963236891E-5],"max":[0.0090854475274682045,-0.0018834432121366262,0.0010308452183380723]},{"bufferView":13,"byteOffset":0,"count":4458,"componentType":5125,"type":"SCALAR"},{"bufferView":14,"byteOffset":0,"count":91,"componentType":5126,"type":"VEC3","min":[-0.00056925730314105749,-0.003164931433275342,0.00070736283669248223],"max":[0.002267433563247323,-0.0025428503286093473,0.0010308452183380723]},{"bufferView":15,"byteOffset":0,"count":558,"componentType":5125,"type":"SCALAR"},{"bufferView":16,"byteOffset":0,"count":64,"componentType":5126,"type":"VEC3","min":[0.0028397492133080959,-0.003164931433275342,0.00070736283669248223],"max":[0.0049672671593725681,-0.0025428503286093473,0.0010308452183380723]},{"bufferView":17,"byteOffset":0,"count":378,"componentType":5125,"type":"SCALAR"},{"bufferView":18,"byteOffset":0,"count":85,"componentType":5126,"type":"VEC3","min":[-0.0069642555899918079,-0.003164931433275342,0.00070736283669248223],"max":[-0.0041275643743574619,-0.0025428503286093473,0.0010308452183380723]},{"bufferView":19,"byteOffset":0,"count":504,"componentType":5125,"type":"SCALAR"},{"bufferView":20,"byteOffset":0,"count":141,"componentType":5126,"type":"VEC3","min":[0.0028397492133080959,-0.0048818765208125114,0.00071980443317443132],"max":[0.0049672671593725681,-0.0036252718418836594,0.0010308452183380723]},{"bufferView":21,"byteOffset":0,"count":894,"componentType":5125,"type":"SCALAR"},{"bufferView":22,"byteOffset":0,"count":105,"componentType":5126,"type":"VEC3","min":[-0.0037791978102177382,-0.003164931433275342,0.00070736283669248223],"max":[-0.00094250694382935762,-0.0025428503286093473,0.0010308452183380723]},{"bufferView":23,"byteOffset":0,"count":684,"componentType":5125,"type":"SCALAR"},{"bufferView":24,"byteOffset":0,"count":401,"componentType":5126,"type":"VEC3","min":[0.0055395825766026974,-0.0067978878505527973,0.00070736283669248223],"max":[0.0083762733265757561,-0.0036252718418836594,0.0010308452183380723]},{"bufferView":25,"byteOffset":0,"count":2628,"componentType":5125,"type":"SCALAR"}],"bufferViews":[{"buffer":0,"byteOffset":0,"byteLength":48396,"byteStride":12,"target":34962},{"buffer":0,"byteOffset":48396,"byteLength":368,"byteStride":8,"target":34962},{"buffer":0,"byteOffset":48764,"byteLength":2116,"byteStride":4,"target":34962},{"buffer":0,"byteOffset":50880,"byteLength":95160,"target":34963},{"buffer":0,"byteOffset":146040,"byteLength":10164,"byteStride":12,"target":34962},{"buffer":0,"byteOffset":156204,"byteLength":20352,"target":34963},{"buffer":0,"byteOffset":176556,"byteLength":19692,"byteStride":12,"target":34962},{"buffer":0,"byteOffset":196248,"byteLength":45264,"target":34963},{"buffer":0,"byteOffset":241512,"byteLength":7152,"byteStride":12,"target":34962},{"buffer":0,"byteOffset":248664,"byteLength":64,"byteStride":8,"target":34962},{"buffer":0,"byteOffset":248728,"byteLength":832,"byteStride":4,"target":34962},{"buffer":0,"byteOffset":249560,"byteLength":13728,"target":34963},{"buffer":0,"byteOffset":263288,"byteLength":8832,"byteStride":12,"target":34962},{"buffer":0,"byteOffset":272120,"byteLength":17832,"target":34963},{"buffer":0,"byteOffset":289952,"byteLength":1092,"byteStride":12,"target":34962},{"buffer":0,"byteOffset":291044,"byteLength":2232,"target":34963},{"buffer":0,"byteOffset":293276,"byteLength":768,"byteStride":12,"target":34962},{"buffer":0,"byteOffset":294044,"byteLength":1512,"target":34963},{"buffer":0,"byteOffset":295556,"byteLength":1020,"byteStride":12,"target":34962},{"buffer":0,"byteOffset":296576,"byteLength":2016,"target":34963},{"buffer":0,"byteOffset":298592,"byteLength":1692,"byteStride":12,"target":34962},{"buffer":0,"byteOffset":300284,"byteLength":3576,"target":34963},{"buffer":0,"byteOffset":303860,"byteLength":1260,"byteStride":12,"target":34962},{"buffer":0,"byteOffset":305120,"byteLength":2736,"target":34963},{"buffer":0,"byteOffset":307856,"byteLength":4812,"byteStride":12,"target":34962},{"buffer":0,"byteOffset":312668,"byteLength":10512,"target":34963}],"buffers":[{"byteLength":323180,"uri":"Desktop Computer.bin"}]}